<mxfile host="app.diagrams.net" modified="2021-04-23T13:51:29.289Z" agent="5.0 (Windows)" etag="_cDuj0_R9UWmSWzOaFcg" version="14.6.6" type="github">
  <diagram id="C5RBs43oDa-KdzZeNtuy" name="Page-1">
    <mxGraphModel dx="2031" dy="1116" grid="1" gridSize="10" guides="1" tooltips="1" connect="1" arrows="1" fold="1" page="1" pageScale="1" pageWidth="827" pageHeight="1169" math="0" shadow="0">
      <root>
        <mxCell id="WIyWlLk6GJQsqaUBKTNV-0" />
        <mxCell id="WIyWlLk6GJQsqaUBKTNV-1" parent="WIyWlLk6GJQsqaUBKTNV-0" />
        <mxCell id="PgA1OvmayW9uiEhV1ccv-33" value="&lt;p style=&quot;margin: 0px ; margin-top: 4px ; text-align: center&quot;&gt;&lt;b&gt;Card&lt;/b&gt;&lt;/p&gt;&lt;hr size=&quot;1&quot;&gt;&lt;p style=&quot;margin: 0px ; margin-left: 4px&quot;&gt;- priority: int&lt;/p&gt;&lt;p style=&quot;margin: 0px ; margin-left: 4px&quot;&gt;- type: String&lt;/p&gt;&lt;p style=&quot;margin: 0px ; margin-left: 4px&quot;&gt;- moves: Int&lt;/p&gt;&lt;p style=&quot;margin: 0px ; margin-left: 4px&quot;&gt;- texture: Texture&lt;br&gt;&lt;/p&gt;&lt;hr size=&quot;1&quot;&gt;&lt;p style=&quot;margin: 0px ; margin-left: 4px&quot;&gt;+ setTexture(Texture): void&lt;/p&gt;&lt;p style=&quot;margin: 0px ; margin-left: 4px&quot;&gt;+ toString()&lt;/p&gt;&lt;p style=&quot;margin: 0px ; margin-left: 4px&quot;&gt;+ add(int, String): void&lt;/p&gt;&lt;p style=&quot;margin: 0px ; margin-left: 4px&quot;&gt;+ getMoves(): int&lt;br&gt;&lt;/p&gt;&lt;p style=&quot;margin: 0px ; margin-left: 4px&quot;&gt;+ getTexture(): Texture&lt;br&gt;&lt;/p&gt;" style="verticalAlign=top;align=left;overflow=fill;fontSize=12;fontFamily=Helvetica;html=1;" parent="WIyWlLk6GJQsqaUBKTNV-1" vertex="1">
          <mxGeometry x="10" y="30" width="160" height="180" as="geometry" />
        </mxCell>
        <mxCell id="PgA1OvmayW9uiEhV1ccv-34" value="&lt;div align=&quot;center&quot;&gt;Deck&lt;br&gt;&lt;/div&gt;&lt;hr size=&quot;1&quot;&gt;&lt;p style=&quot;margin: 0px ; margin-left: 4px&quot;&gt;- currentDeck: ArrayList&amp;lt;Card&amp;gt;&lt;/p&gt;&lt;hr size=&quot;1&quot;&gt;&lt;p style=&quot;margin: 0px ; margin-left: 4px&quot;&gt;+ createDeck(): void&lt;/p&gt;&lt;p style=&quot;margin: 0px ; margin-left: 4px&quot;&gt;+ deal(int): ArrayList&amp;lt;Card&amp;gt;&lt;/p&gt;&lt;p style=&quot;margin: 0px ; margin-left: 4px&quot;&gt;+ remove(Card): void&lt;br&gt;&lt;/p&gt;" style="verticalAlign=top;align=left;overflow=fill;fontSize=12;fontFamily=Helvetica;html=1;" parent="WIyWlLk6GJQsqaUBKTNV-1" vertex="1">
          <mxGeometry y="290" width="180" height="110" as="geometry" />
        </mxCell>
        <mxCell id="PgA1OvmayW9uiEhV1ccv-38" value="&lt;p style=&quot;margin: 0px ; margin-top: 4px ; text-align: center&quot;&gt;Direction&lt;/p&gt;&lt;hr size=&quot;1&quot;&gt;&lt;p style=&quot;margin: 0px ; margin-left: 4px&quot;&gt;+ NORTH: Direction&lt;/p&gt;&lt;p style=&quot;margin: 0px ; margin-left: 4px&quot;&gt;+ WEST: Direction&lt;br&gt;&lt;/p&gt;&lt;p style=&quot;margin: 0px ; margin-left: 4px&quot;&gt;+ EAST: Direction&lt;br&gt;&lt;/p&gt;&lt;p style=&quot;margin: 0px ; margin-left: 4px&quot;&gt;+ SOUTH: Direction&lt;br&gt;&lt;/p&gt;&lt;hr size=&quot;1&quot;&gt;&lt;p style=&quot;margin: 0px ; margin-left: 4px&quot;&gt;+ rotateLeft(Direction): Direction&lt;/p&gt;&lt;p style=&quot;margin: 0px ; margin-left: 4px&quot;&gt;+ rotateRight(Direction): Direction&lt;/p&gt;&lt;p style=&quot;margin: 0px ; margin-left: 4px&quot;&gt;+ uTurn(Direction): Direction&lt;/p&gt;&lt;p style=&quot;margin: 0px ; margin-left: 4px&quot;&gt;+ dirComponents(Direction): int[]&lt;br&gt;&lt;/p&gt;" style="verticalAlign=top;align=left;overflow=fill;fontSize=12;fontFamily=Helvetica;html=1;" parent="WIyWlLk6GJQsqaUBKTNV-1" vertex="1">
          <mxGeometry x="950" y="740" width="190" height="170" as="geometry" />
        </mxCell>
        <mxCell id="fLjQUm1ZbyStn0Px-WZ8-3" value="" style="endArrow=diamondThin;endFill=0;endSize=24;html=1;strokeWidth=2;" parent="WIyWlLk6GJQsqaUBKTNV-1" edge="1">
          <mxGeometry width="160" relative="1" as="geometry">
            <mxPoint x="180" y="340" as="sourcePoint" />
            <mxPoint x="290" y="340" as="targetPoint" />
          </mxGeometry>
        </mxCell>
        <mxCell id="fLjQUm1ZbyStn0Px-WZ8-4" value="" style="endArrow=diamondThin;endFill=0;endSize=24;html=1;strokeWidth=2;exitX=-0.006;exitY=0.695;exitDx=0;exitDy=0;exitPerimeter=0;" parent="WIyWlLk6GJQsqaUBKTNV-1" source="GgQw_TRiUhhSthofnAt6-34" edge="1">
          <mxGeometry width="160" relative="1" as="geometry">
            <mxPoint x="628" y="223.65499999999986" as="sourcePoint" />
            <mxPoint x="510" y="361" as="targetPoint" />
          </mxGeometry>
        </mxCell>
        <mxCell id="fLjQUm1ZbyStn0Px-WZ8-5" value="" style="endArrow=diamondThin;endFill=0;endSize=24;html=1;strokeWidth=2;entryX=1;entryY=0.5;entryDx=0;entryDy=0;" parent="WIyWlLk6GJQsqaUBKTNV-1" source="GgQw_TRiUhhSthofnAt6-42" target="GgQw_TRiUhhSthofnAt6-17" edge="1">
          <mxGeometry width="160" relative="1" as="geometry">
            <mxPoint x="620" y="135.17500000000007" as="sourcePoint" />
            <mxPoint x="520" y="135" as="targetPoint" />
          </mxGeometry>
        </mxCell>
        <mxCell id="fLjQUm1ZbyStn0Px-WZ8-6" value="" style="endArrow=diamondThin;endFill=0;endSize=24;html=1;strokeWidth=2;" parent="WIyWlLk6GJQsqaUBKTNV-1" source="PgA1OvmayW9uiEhV1ccv-38" target="GgQw_TRiUhhSthofnAt6-36" edge="1">
          <mxGeometry width="160" relative="1" as="geometry">
            <mxPoint x="1008" y="140.48500000000013" as="sourcePoint" />
            <mxPoint x="910" y="140" as="targetPoint" />
          </mxGeometry>
        </mxCell>
        <mxCell id="fLjQUm1ZbyStn0Px-WZ8-7" value="contains" style="endArrow=diamondThin;endFill=1;endSize=24;html=1;strokeWidth=2;entryX=0.5;entryY=1;entryDx=0;entryDy=0;exitX=0.5;exitY=0;exitDx=0;exitDy=0;" parent="WIyWlLk6GJQsqaUBKTNV-1" source="PgA1OvmayW9uiEhV1ccv-34" target="PgA1OvmayW9uiEhV1ccv-33" edge="1">
          <mxGeometry width="160" relative="1" as="geometry">
            <mxPoint x="20" y="270" as="sourcePoint" />
            <mxPoint x="180" y="270" as="targetPoint" />
          </mxGeometry>
        </mxCell>
        <mxCell id="GgQw_TRiUhhSthofnAt6-12" value="RoboRallyGame" style="swimlane;fontStyle=1;align=center;verticalAlign=top;childLayout=stackLayout;horizontal=1;startSize=26;horizontalStack=0;resizeParent=1;resizeParentMax=0;resizeLast=0;collapsible=1;marginBottom=0;" parent="WIyWlLk6GJQsqaUBKTNV-1" vertex="1">
          <mxGeometry x="50" y="690" width="230" height="160" as="geometry" />
        </mxCell>
        <mxCell id="GgQw_TRiUhhSthofnAt6-13" value="+ HEIGHT : int&#xa;+ WIDTH: int&#xa;batch: SpriteBatch&#xa;font: BitmapFont&#xa;shapeRenderer: ShapeRenderer&#xa;" style="text;strokeColor=none;fillColor=none;align=left;verticalAlign=top;spacingLeft=4;spacingRight=4;overflow=hidden;rotatable=0;points=[[0,0.5],[1,0.5]];portConstraint=eastwest;" parent="GgQw_TRiUhhSthofnAt6-12" vertex="1">
          <mxGeometry y="26" width="230" height="84" as="geometry" />
        </mxCell>
        <mxCell id="GgQw_TRiUhhSthofnAt6-14" value="" style="line;strokeWidth=1;fillColor=none;align=left;verticalAlign=middle;spacingTop=-1;spacingLeft=3;spacingRight=3;rotatable=0;labelPosition=right;points=[];portConstraint=eastwest;" parent="GgQw_TRiUhhSthofnAt6-12" vertex="1">
          <mxGeometry y="110" width="230" height="8" as="geometry" />
        </mxCell>
        <mxCell id="GgQw_TRiUhhSthofnAt6-15" value="+ create(): void&#xa;+ dispose(): void&#xa;" style="text;strokeColor=none;fillColor=none;align=left;verticalAlign=top;spacingLeft=4;spacingRight=4;overflow=hidden;rotatable=0;points=[[0,0.5],[1,0.5]];portConstraint=eastwest;" parent="GgQw_TRiUhhSthofnAt6-12" vertex="1">
          <mxGeometry y="118" width="230" height="42" as="geometry" />
        </mxCell>
        <mxCell id="GgQw_TRiUhhSthofnAt6-16" value="GameScreen" style="swimlane;fontStyle=1;align=center;verticalAlign=top;childLayout=stackLayout;horizontal=1;startSize=26;horizontalStack=0;resizeParent=1;resizeParentMax=0;resizeLast=0;collapsible=1;marginBottom=0;" parent="WIyWlLk6GJQsqaUBKTNV-1" vertex="1">
          <mxGeometry x="290" y="90" width="240" height="268" as="geometry" />
        </mxCell>
        <mxCell id="GgQw_TRiUhhSthofnAt6-17" value="game: RoboRallyGame&#xa;+ boardTiledMap: Board&#xa;+ localPlayer: Player&#xa;+ networkConnection: NetworkConnection&#xa;- render: OrthogonalTiledMapRenderer&#xa;+ currentDeck: Deck&#xa;&#xa;" style="text;strokeColor=none;fillColor=none;align=left;verticalAlign=top;spacingLeft=4;spacingRight=4;overflow=hidden;rotatable=0;points=[[0,0.5],[1,0.5]];portConstraint=eastwest;" parent="GgQw_TRiUhhSthofnAt6-16" vertex="1">
          <mxGeometry y="26" width="240" height="104" as="geometry" />
        </mxCell>
        <mxCell id="GgQw_TRiUhhSthofnAt6-18" value="" style="line;strokeWidth=1;fillColor=none;align=left;verticalAlign=middle;spacingTop=-1;spacingLeft=3;spacingRight=3;rotatable=0;labelPosition=right;points=[];portConstraint=eastwest;" parent="GgQw_TRiUhhSthofnAt6-16" vertex="1">
          <mxGeometry y="130" width="240" height="8" as="geometry" />
        </mxCell>
        <mxCell id="GgQw_TRiUhhSthofnAt6-19" value="+ dealCards(): void&#xa;+ keyMovement(int): boolean&#xa;+ pause(): void&#xa;+ render(): void&#xa;+ resize(): void&#xa;+ resume(): void&#xa;+ show(): void&#xa;- moveOneForward(): void&#xa;&#xa;" style="text;strokeColor=none;fillColor=none;align=left;verticalAlign=top;spacingLeft=4;spacingRight=4;overflow=hidden;rotatable=0;points=[[0,0.5],[1,0.5]];portConstraint=eastwest;" parent="GgQw_TRiUhhSthofnAt6-16" vertex="1">
          <mxGeometry y="138" width="240" height="130" as="geometry" />
        </mxCell>
        <mxCell id="GgQw_TRiUhhSthofnAt6-20" value="MenuScreen" style="swimlane;fontStyle=0;align=center;verticalAlign=top;childLayout=stackLayout;horizontal=1;startSize=26;horizontalStack=0;resizeParent=1;resizeParentMax=0;resizeLast=0;collapsible=1;marginBottom=0;" parent="WIyWlLk6GJQsqaUBKTNV-1" vertex="1">
          <mxGeometry x="370" y="670" width="160" height="168" as="geometry" />
        </mxCell>
        <mxCell id="3rIXeKDHrVkZI3w4sd3L-20" value="" style="endArrow=diamondThin;endFill=0;endSize=24;html=1;strokeWidth=2;entryX=0.862;entryY=-0.024;entryDx=0;entryDy=0;entryPerimeter=0;" edge="1" parent="GgQw_TRiUhhSthofnAt6-20" target="3rIXeKDHrVkZI3w4sd3L-4">
          <mxGeometry width="160" relative="1" as="geometry">
            <mxPoint x="142" y="-50" as="sourcePoint" />
            <mxPoint x="141.84210526315837" y="37" as="targetPoint" />
            <Array as="points">
              <mxPoint x="200" y="40" />
            </Array>
          </mxGeometry>
        </mxCell>
        <mxCell id="GgQw_TRiUhhSthofnAt6-21" value="game: RoboRallyGame&#xa;playButton: Button&#xa;connectButton: Button&#xa;hostButton: Button&#xa;titleScreen: Texture&#xa;" style="text;strokeColor=none;fillColor=none;align=left;verticalAlign=top;spacingLeft=4;spacingRight=4;overflow=hidden;rotatable=0;points=[[0,0.5],[1,0.5]];portConstraint=eastwest;" parent="GgQw_TRiUhhSthofnAt6-20" vertex="1">
          <mxGeometry y="26" width="160" height="74" as="geometry" />
        </mxCell>
        <mxCell id="GgQw_TRiUhhSthofnAt6-22" value="" style="line;strokeWidth=1;fillColor=none;align=left;verticalAlign=middle;spacingTop=-1;spacingLeft=3;spacingRight=3;rotatable=0;labelPosition=right;points=[];portConstraint=eastwest;" parent="GgQw_TRiUhhSthofnAt6-20" vertex="1">
          <mxGeometry y="100" width="160" height="8" as="geometry" />
        </mxCell>
        <mxCell id="GgQw_TRiUhhSthofnAt6-23" value="+ render(): void&#xa;+ show(): void&#xa;+ hide(): void" style="text;strokeColor=none;fillColor=none;align=left;verticalAlign=top;spacingLeft=4;spacingRight=4;overflow=hidden;rotatable=0;points=[[0,0.5],[1,0.5]];portConstraint=eastwest;" parent="GgQw_TRiUhhSthofnAt6-20" vertex="1">
          <mxGeometry y="108" width="160" height="60" as="geometry" />
        </mxCell>
        <mxCell id="GgQw_TRiUhhSthofnAt6-24" value="EndScreen" style="swimlane;fontStyle=1;align=center;verticalAlign=top;childLayout=stackLayout;horizontal=1;startSize=26;horizontalStack=0;resizeParent=1;resizeParentMax=0;resizeLast=0;collapsible=1;marginBottom=0;" parent="WIyWlLk6GJQsqaUBKTNV-1" vertex="1">
          <mxGeometry y="457" width="160" height="158" as="geometry" />
        </mxCell>
        <mxCell id="GgQw_TRiUhhSthofnAt6-25" value="game: RoboRallyGame&#xa;restartButton: Button&#xa;exitButton: Button&#xa;victoryScreen: Texture&#xa;" style="text;strokeColor=none;fillColor=none;align=left;verticalAlign=top;spacingLeft=4;spacingRight=4;overflow=hidden;rotatable=0;points=[[0,0.5],[1,0.5]];portConstraint=eastwest;" parent="GgQw_TRiUhhSthofnAt6-24" vertex="1">
          <mxGeometry y="26" width="160" height="64" as="geometry" />
        </mxCell>
        <mxCell id="GgQw_TRiUhhSthofnAt6-26" value="" style="line;strokeWidth=1;fillColor=none;align=left;verticalAlign=middle;spacingTop=-1;spacingLeft=3;spacingRight=3;rotatable=0;labelPosition=right;points=[];portConstraint=eastwest;" parent="GgQw_TRiUhhSthofnAt6-24" vertex="1">
          <mxGeometry y="90" width="160" height="8" as="geometry" />
        </mxCell>
        <mxCell id="GgQw_TRiUhhSthofnAt6-27" value="+ hide(): void&#xa;+ render(): void&#xa;+ show(): void&#xa;" style="text;strokeColor=none;fillColor=none;align=left;verticalAlign=top;spacingLeft=4;spacingRight=4;overflow=hidden;rotatable=0;points=[[0,0.5],[1,0.5]];portConstraint=eastwest;" parent="GgQw_TRiUhhSthofnAt6-24" vertex="1">
          <mxGeometry y="98" width="160" height="60" as="geometry" />
        </mxCell>
        <mxCell id="GgQw_TRiUhhSthofnAt6-33" value="Player" style="swimlane;fontStyle=1;align=center;verticalAlign=top;childLayout=stackLayout;horizontal=1;startSize=26;horizontalStack=0;resizeParent=1;resizeParentMax=0;resizeLast=0;collapsible=1;marginBottom=0;" parent="WIyWlLk6GJQsqaUBKTNV-1" vertex="1">
          <mxGeometry x="620" y="371" width="270" height="330" as="geometry" />
        </mxCell>
        <mxCell id="GgQw_TRiUhhSthofnAt6-34" value="+ chosenCards: ArrayList&lt;Card&gt;&#xa;+ handSize: int&#xa;+ selectableCards: ArrayList&lt;Card&gt;&#xa;- flagOneConfirmed: boolean&#xa;- flagTwoConfirmed: boolean&#xa;- playerCell: Cell&#xa;- position: Vector2&#xa;- trRegionsPlayerDir: TextureRegion[][]&#xa;- trRegionsPlayerStatus: TextureRegion[][]&#xa;+ direction: Direction&#xa;" style="text;strokeColor=none;fillColor=none;align=left;verticalAlign=top;spacingLeft=4;spacingRight=4;overflow=hidden;rotatable=0;points=[[0,0.5],[1,0.5]];portConstraint=eastwest;" parent="GgQw_TRiUhhSthofnAt6-33" vertex="1">
          <mxGeometry y="26" width="270" height="154" as="geometry" />
        </mxCell>
        <mxCell id="GgQw_TRiUhhSthofnAt6-35" value="" style="line;strokeWidth=1;fillColor=none;align=left;verticalAlign=middle;spacingTop=-1;spacingLeft=3;spacingRight=3;rotatable=0;labelPosition=right;points=[];portConstraint=eastwest;" parent="GgQw_TRiUhhSthofnAt6-33" vertex="1">
          <mxGeometry y="180" width="270" height="8" as="geometry" />
        </mxCell>
        <mxCell id="GgQw_TRiUhhSthofnAt6-36" value="+ move(int): void&#xa;+ executeCard(Card): void&#xa;+ turn(String): void&#xa;+ setDirection(Direction): void&#xa;+ updateDirection(): void&#xa;+ removePlayer(): void&#xa;+ render(): void&#xa;+ showHand(): void&#xa;+ chooseCard(int): void" style="text;strokeColor=none;fillColor=none;align=left;verticalAlign=top;spacingLeft=4;spacingRight=4;overflow=hidden;rotatable=0;points=[[0,0.5],[1,0.5]];portConstraint=eastwest;" parent="GgQw_TRiUhhSthofnAt6-33" vertex="1">
          <mxGeometry y="188" width="270" height="142" as="geometry" />
        </mxCell>
        <mxCell id="GgQw_TRiUhhSthofnAt6-37" value="CellChecker" style="swimlane;fontStyle=1;align=center;verticalAlign=top;childLayout=stackLayout;horizontal=1;startSize=26;horizontalStack=0;resizeParent=1;resizeParentMax=0;resizeLast=0;collapsible=1;marginBottom=0;" parent="WIyWlLk6GJQsqaUBKTNV-1" vertex="1">
          <mxGeometry x="1010" y="260" width="330" height="140" as="geometry" />
        </mxCell>
        <mxCell id="GgQw_TRiUhhSthofnAt6-38" value="- player: Player" style="text;strokeColor=none;fillColor=none;align=left;verticalAlign=top;spacingLeft=4;spacingRight=4;overflow=hidden;rotatable=0;points=[[0,0.5],[1,0.5]];portConstraint=eastwest;" parent="GgQw_TRiUhhSthofnAt6-37" vertex="1">
          <mxGeometry y="26" width="330" height="26" as="geometry" />
        </mxCell>
        <mxCell id="GgQw_TRiUhhSthofnAt6-39" value="" style="line;strokeWidth=1;fillColor=none;align=left;verticalAlign=middle;spacingTop=-1;spacingLeft=3;spacingRight=3;rotatable=0;labelPosition=right;points=[];portConstraint=eastwest;" parent="GgQw_TRiUhhSthofnAt6-37" vertex="1">
          <mxGeometry y="52" width="330" height="8" as="geometry" />
        </mxCell>
        <mxCell id="GgQw_TRiUhhSthofnAt6-40" value="+ checkNextMove(Card): CellType&#xa;+ checkNextMove(Direction): CellType&#xa;- blockedByWall(Vector2, Direction): boolean&#xa;- getNewPosition(Vector2, Direction): Vector2&#xa;+ getCellIDsAtPosition(Vector2): HashMap&lt;String, Integer&gt;&#xa;" style="text;strokeColor=none;fillColor=none;align=left;verticalAlign=top;spacingLeft=4;spacingRight=4;overflow=hidden;rotatable=0;points=[[0,0.5],[1,0.5]];portConstraint=eastwest;" parent="GgQw_TRiUhhSthofnAt6-37" vertex="1">
          <mxGeometry y="60" width="330" height="80" as="geometry" />
        </mxCell>
        <mxCell id="GgQw_TRiUhhSthofnAt6-41" value="NetworkConnection" style="swimlane;fontStyle=1;align=center;verticalAlign=top;childLayout=stackLayout;horizontal=1;startSize=26;horizontalStack=0;resizeParent=1;resizeParentMax=0;resizeLast=0;collapsible=1;marginBottom=0;" parent="WIyWlLk6GJQsqaUBKTNV-1" vertex="1">
          <mxGeometry x="630" y="31" width="280" height="200" as="geometry" />
        </mxCell>
        <mxCell id="GgQw_TRiUhhSthofnAt6-42" value="- maxPlayers: int&#xa;- serverIP: String&#xa;- serverPort: int&#xa;- client: Client&#xa;- networkPlayerQueue: HashMap&lt;Integer, Player&gt;&#xa;- networkPlayers: HashMap&lt;Integer, Player&gt;" style="text;strokeColor=none;fillColor=none;align=left;verticalAlign=top;spacingLeft=4;spacingRight=4;overflow=hidden;rotatable=0;points=[[0,0.5],[1,0.5]];portConstraint=eastwest;" parent="GgQw_TRiUhhSthofnAt6-41" vertex="1">
          <mxGeometry y="26" width="280" height="94" as="geometry" />
        </mxCell>
        <mxCell id="GgQw_TRiUhhSthofnAt6-43" value="" style="line;strokeWidth=1;fillColor=none;align=left;verticalAlign=middle;spacingTop=-1;spacingLeft=3;spacingRight=3;rotatable=0;labelPosition=right;points=[];portConstraint=eastwest;" parent="GgQw_TRiUhhSthofnAt6-41" vertex="1">
          <mxGeometry y="120" width="280" height="8" as="geometry" />
        </mxCell>
        <mxCell id="GgQw_TRiUhhSthofnAt6-44" value="- connectionSetup(): void&#xa;+ addPlayer(int, int, int): void&#xa;+ removePlayer(int): void&#xa;+ sendPosition(int, int): void" style="text;strokeColor=none;fillColor=none;align=left;verticalAlign=top;spacingLeft=4;spacingRight=4;overflow=hidden;rotatable=0;points=[[0,0.5],[1,0.5]];portConstraint=eastwest;" parent="GgQw_TRiUhhSthofnAt6-41" vertex="1">
          <mxGeometry y="128" width="280" height="72" as="geometry" />
        </mxCell>
        <mxCell id="GgQw_TRiUhhSthofnAt6-45" value="CellType &lt;enum&gt;" style="swimlane;fontStyle=0;childLayout=stackLayout;horizontal=1;startSize=26;fillColor=none;horizontalStack=0;resizeParent=1;resizeParentMax=0;resizeLast=0;collapsible=1;marginBottom=0;" parent="WIyWlLk6GJQsqaUBKTNV-1" vertex="1">
          <mxGeometry x="1130" y="531" width="140" height="190" as="geometry" />
        </mxCell>
        <mxCell id="GgQw_TRiUhhSthofnAt6-46" value="VALID_MOVE&#xa;FLAG&#xa;HOLE&#xa;WRENCHES&#xa;YELLOW_BELTS&#xa;BLUE_BELTS&#xa;LASER&#xa;GEAR_RIGHT_TURN&#xa;GEAR_LEFT_TURN&#xa;TURN_CARD&#xa;BLOCKED_BY_WALL&#xa;" style="text;strokeColor=none;fillColor=none;align=left;verticalAlign=top;spacingLeft=4;spacingRight=4;overflow=hidden;rotatable=0;points=[[0,0.5],[1,0.5]];portConstraint=eastwest;" parent="GgQw_TRiUhhSthofnAt6-45" vertex="1">
          <mxGeometry y="26" width="140" height="164" as="geometry" />
        </mxCell>
        <mxCell id="GgQw_TRiUhhSthofnAt6-57" value="Board" style="swimlane;fontStyle=0;childLayout=stackLayout;horizontal=1;startSize=26;fillColor=none;horizontalStack=0;resizeParent=1;resizeParentMax=0;resizeLast=0;collapsible=1;marginBottom=0;" parent="WIyWlLk6GJQsqaUBKTNV-1" vertex="1">
          <mxGeometry x="650" y="248" width="180" height="110" as="geometry" />
        </mxCell>
        <mxCell id="GgQw_TRiUhhSthofnAt6-58" value="- layers: TiledMap&#xa;- playerLayer: TiledMapTileLayer&#xa;- boardLayer: TiledMapTileLayer&#xa;- flagLayer: TiledMapTileLayer&#xa;- holeLayer: TiledMapTileLayer" style="text;strokeColor=none;fillColor=none;align=left;verticalAlign=top;spacingLeft=4;spacingRight=4;overflow=hidden;rotatable=0;points=[[0,0.5],[1,0.5]];portConstraint=eastwest;" parent="GgQw_TRiUhhSthofnAt6-57" vertex="1">
          <mxGeometry y="26" width="180" height="84" as="geometry" />
        </mxCell>
        <mxCell id="GgQw_TRiUhhSthofnAt6-62" value="" style="endArrow=diamondThin;endFill=0;endSize=24;html=1;strokeWidth=2;exitX=0.5;exitY=0;exitDx=0;exitDy=0;entryX=0.103;entryY=1.008;entryDx=0;entryDy=0;entryPerimeter=0;" parent="WIyWlLk6GJQsqaUBKTNV-1" source="GgQw_TRiUhhSthofnAt6-12" target="GgQw_TRiUhhSthofnAt6-19" edge="1">
          <mxGeometry width="160" relative="1" as="geometry">
            <mxPoint x="418" y="501.4849999999999" as="sourcePoint" />
            <mxPoint x="200" y="431" as="targetPoint" />
          </mxGeometry>
        </mxCell>
        <mxCell id="GgQw_TRiUhhSthofnAt6-63" value="" style="endArrow=diamondThin;endFill=0;endSize=24;html=1;strokeWidth=2;exitX=1;exitY=0.5;exitDx=0;exitDy=0;" parent="WIyWlLk6GJQsqaUBKTNV-1" source="GgQw_TRiUhhSthofnAt6-13" target="GgQw_TRiUhhSthofnAt6-21" edge="1">
          <mxGeometry width="160" relative="1" as="geometry">
            <mxPoint x="368" y="571.4849999999999" as="sourcePoint" />
            <mxPoint x="270" y="570.9999999999998" as="targetPoint" />
          </mxGeometry>
        </mxCell>
        <mxCell id="GgQw_TRiUhhSthofnAt6-64" value="" style="endArrow=diamondThin;endFill=0;endSize=24;html=1;strokeWidth=2;exitX=0.408;exitY=-0.001;exitDx=0;exitDy=0;exitPerimeter=0;" parent="WIyWlLk6GJQsqaUBKTNV-1" source="GgQw_TRiUhhSthofnAt6-12" target="GgQw_TRiUhhSthofnAt6-27" edge="1">
          <mxGeometry width="160" relative="1" as="geometry">
            <mxPoint x="388" y="641.4849999999999" as="sourcePoint" />
            <mxPoint x="290" y="640.9999999999998" as="targetPoint" />
          </mxGeometry>
        </mxCell>
        <mxCell id="GgQw_TRiUhhSthofnAt6-65" value="Button" style="swimlane;fontStyle=1;align=center;verticalAlign=top;childLayout=stackLayout;horizontal=1;startSize=26;horizontalStack=0;resizeParent=1;resizeParentMax=0;resizeLast=0;collapsible=1;marginBottom=0;" parent="WIyWlLk6GJQsqaUBKTNV-1" vertex="1">
          <mxGeometry x="320" y="490" width="210" height="134" as="geometry" />
        </mxCell>
        <mxCell id="GgQw_TRiUhhSthofnAt6-66" value="active: Texture&#xa;inactive: Texture&#xa;- WIDTH: int&#xa;- HEIGHT: int&#xa;- Y: int&#xa;" style="text;strokeColor=none;fillColor=none;align=left;verticalAlign=top;spacingLeft=4;spacingRight=4;overflow=hidden;rotatable=0;points=[[0,0.5],[1,0.5]];portConstraint=eastwest;" parent="GgQw_TRiUhhSthofnAt6-65" vertex="1">
          <mxGeometry y="26" width="210" height="74" as="geometry" />
        </mxCell>
        <mxCell id="GgQw_TRiUhhSthofnAt6-67" value="" style="line;strokeWidth=1;fillColor=none;align=left;verticalAlign=middle;spacingTop=-1;spacingLeft=3;spacingRight=3;rotatable=0;labelPosition=right;points=[];portConstraint=eastwest;" parent="GgQw_TRiUhhSthofnAt6-65" vertex="1">
          <mxGeometry y="100" width="210" height="8" as="geometry" />
        </mxCell>
        <mxCell id="GgQw_TRiUhhSthofnAt6-68" value="+ buttonHover(RoboRallyGame): void" style="text;strokeColor=none;fillColor=none;align=left;verticalAlign=top;spacingLeft=4;spacingRight=4;overflow=hidden;rotatable=0;points=[[0,0.5],[1,0.5]];portConstraint=eastwest;" parent="GgQw_TRiUhhSthofnAt6-65" vertex="1">
          <mxGeometry y="108" width="210" height="26" as="geometry" />
        </mxCell>
        <mxCell id="GgQw_TRiUhhSthofnAt6-70" value="" style="endArrow=diamondThin;endFill=0;endSize=24;html=1;strokeWidth=2;" parent="WIyWlLk6GJQsqaUBKTNV-1" source="GgQw_TRiUhhSthofnAt6-65" target="GgQw_TRiUhhSthofnAt6-20" edge="1">
          <mxGeometry width="160" relative="1" as="geometry">
            <mxPoint x="638" y="481.485" as="sourcePoint" />
            <mxPoint x="540" y="481" as="targetPoint" />
          </mxGeometry>
        </mxCell>
        <mxCell id="GgQw_TRiUhhSthofnAt6-71" value="" style="endArrow=diamondThin;endFill=0;endSize=24;html=1;strokeWidth=2;exitX=0.003;exitY=0.942;exitDx=0;exitDy=0;exitPerimeter=0;entryX=1;entryY=0.5;entryDx=0;entryDy=0;" parent="WIyWlLk6GJQsqaUBKTNV-1" source="GgQw_TRiUhhSthofnAt6-66" target="GgQw_TRiUhhSthofnAt6-25" edge="1">
          <mxGeometry width="160" relative="1" as="geometry">
            <mxPoint x="660" y="701.4850000000001" as="sourcePoint" />
            <mxPoint x="562" y="701" as="targetPoint" />
          </mxGeometry>
        </mxCell>
        <mxCell id="GgQw_TRiUhhSthofnAt6-73" value="" style="endArrow=diamondThin;endFill=0;endSize=24;html=1;strokeWidth=2;exitX=0.5;exitY=0;exitDx=0;exitDy=0;" parent="WIyWlLk6GJQsqaUBKTNV-1" source="GgQw_TRiUhhSthofnAt6-45" target="GgQw_TRiUhhSthofnAt6-37" edge="1">
          <mxGeometry width="160" relative="1" as="geometry">
            <mxPoint x="1178" y="461.0050000000001" as="sourcePoint" />
            <mxPoint x="1090" y="461" as="targetPoint" />
          </mxGeometry>
        </mxCell>
        <mxCell id="GgQw_TRiUhhSthofnAt6-76" value="" style="endArrow=diamondThin;endFill=0;endSize=24;html=1;strokeWidth=2;exitX=0;exitY=0.5;exitDx=0;exitDy=0;entryX=1;entryY=0.5;entryDx=0;entryDy=0;" parent="WIyWlLk6GJQsqaUBKTNV-1" source="GgQw_TRiUhhSthofnAt6-58" target="GgQw_TRiUhhSthofnAt6-19" edge="1">
          <mxGeometry width="160" relative="1" as="geometry">
            <mxPoint x="640" y="315.17500000000007" as="sourcePoint" />
            <mxPoint x="552" y="315.16999999999996" as="targetPoint" />
          </mxGeometry>
        </mxCell>
        <mxCell id="GgQw_TRiUhhSthofnAt6-77" value="" style="endArrow=diamondThin;endFill=0;endSize=24;html=1;strokeWidth=2;exitX=1.002;exitY=0.08;exitDx=0;exitDy=0;exitPerimeter=0;entryX=0.001;entryY=0.318;entryDx=0;entryDy=0;entryPerimeter=0;" parent="WIyWlLk6GJQsqaUBKTNV-1" source="GgQw_TRiUhhSthofnAt6-36" target="GgQw_TRiUhhSthofnAt6-40" edge="1">
          <mxGeometry width="160" relative="1" as="geometry">
            <mxPoint x="1028" y="731.0050000000001" as="sourcePoint" />
            <mxPoint x="1010" y="581" as="targetPoint" />
          </mxGeometry>
        </mxCell>
        <mxCell id="3rIXeKDHrVkZI3w4sd3L-0" value="CardsMenu" style="swimlane;fontStyle=1;align=center;verticalAlign=top;childLayout=stackLayout;horizontal=1;startSize=26;horizontalStack=0;resizeParent=1;resizeParentMax=0;resizeLast=0;collapsible=1;marginBottom=0;" vertex="1" parent="WIyWlLk6GJQsqaUBKTNV-1">
          <mxGeometry x="670" y="750" width="240" height="370" as="geometry" />
        </mxCell>
        <mxCell id="3rIXeKDHrVkZI3w4sd3L-1" value="+ font : BitmapFont&#xa;- buttonStart : int&#xa;- cardButtonRemove : ArrayList&lt;Button&gt;&#xa;-cardButtons : ArrayList&lt;Button&gt;&#xa;- cardButtonsPicked : ArrayList &lt;Button&gt;&#xa;-cardMenuBackground : Texture&#xa;-cardTextures: HashMap&lt;String, Texture&gt;&#xa;-cardIsSent : boolean&#xa;-damageToken : Texture&#xa;-damageTray: Texture&#xa;- executeButton: Button&#xa;- game : RoboRallyGame&#xa;- lifeToken: Texture&#xa;- lifeTray: Texture&#xa;- lockedButton: Texture&#xa;- lockedScreen: Texture&#xa;- resetButton: Button&#xa;-scaleCardInt: int&#xa;" style="text;strokeColor=none;fillColor=none;align=left;verticalAlign=top;spacingLeft=4;spacingRight=4;overflow=hidden;rotatable=0;points=[[0,0.5],[1,0.5]];portConstraint=eastwest;" vertex="1" parent="3rIXeKDHrVkZI3w4sd3L-0">
          <mxGeometry y="26" width="240" height="264" as="geometry" />
        </mxCell>
        <mxCell id="3rIXeKDHrVkZI3w4sd3L-2" value="" style="line;strokeWidth=1;fillColor=none;align=left;verticalAlign=middle;spacingTop=-1;spacingLeft=3;spacingRight=3;rotatable=0;labelPosition=right;points=[];portConstraint=eastwest;" vertex="1" parent="3rIXeKDHrVkZI3w4sd3L-0">
          <mxGeometry y="290" width="240" height="8" as="geometry" />
        </mxCell>
        <mxCell id="3rIXeKDHrVkZI3w4sd3L-3" value="+renderCard()&#xa;+setCardIsSent()&#xa;+setSelectableCards()&#xa;+touchCardUp()&#xa;" style="text;strokeColor=none;fillColor=none;align=left;verticalAlign=top;spacingLeft=4;spacingRight=4;overflow=hidden;rotatable=0;points=[[0,0.5],[1,0.5]];portConstraint=eastwest;" vertex="1" parent="3rIXeKDHrVkZI3w4sd3L-0">
          <mxGeometry y="298" width="240" height="72" as="geometry" />
        </mxCell>
        <mxCell id="3rIXeKDHrVkZI3w4sd3L-4" value="selectMapScreen" style="swimlane;fontStyle=1;align=center;verticalAlign=top;childLayout=stackLayout;horizontal=1;startSize=26;horizontalStack=0;resizeParent=1;resizeParentMax=0;resizeLast=0;collapsible=1;marginBottom=0;" vertex="1" parent="WIyWlLk6GJQsqaUBKTNV-1">
          <mxGeometry x="420" y="930" width="160" height="180" as="geometry" />
        </mxCell>
        <mxCell id="3rIXeKDHrVkZI3w4sd3L-5" value="-connectType: String&#xa;-mapScreen: Texture&#xa;-playAndHost: Boolean&#xa;-serverIP:String&#xa;" style="text;strokeColor=none;fillColor=none;align=left;verticalAlign=top;spacingLeft=4;spacingRight=4;overflow=hidden;rotatable=0;points=[[0,0.5],[1,0.5]];portConstraint=eastwest;" vertex="1" parent="3rIXeKDHrVkZI3w4sd3L-4">
          <mxGeometry y="26" width="160" height="64" as="geometry" />
        </mxCell>
        <mxCell id="3rIXeKDHrVkZI3w4sd3L-6" value="" style="line;strokeWidth=1;fillColor=none;align=left;verticalAlign=middle;spacingTop=-1;spacingLeft=3;spacingRight=3;rotatable=0;labelPosition=right;points=[];portConstraint=eastwest;" vertex="1" parent="3rIXeKDHrVkZI3w4sd3L-4">
          <mxGeometry y="90" width="160" height="8" as="geometry" />
        </mxCell>
        <mxCell id="3rIXeKDHrVkZI3w4sd3L-7" value="+hide()&#xa;+render()&#xa;+selectMapScreen()&#xa;+show()&#xa;-runGame()&#xa;" style="text;strokeColor=none;fillColor=none;align=left;verticalAlign=top;spacingLeft=4;spacingRight=4;overflow=hidden;rotatable=0;points=[[0,0.5],[1,0.5]];portConstraint=eastwest;" vertex="1" parent="3rIXeKDHrVkZI3w4sd3L-4">
          <mxGeometry y="98" width="160" height="82" as="geometry" />
        </mxCell>
        <mxCell id="3rIXeKDHrVkZI3w4sd3L-8" value="ConnectScreen" style="swimlane;fontStyle=1;align=center;verticalAlign=top;childLayout=stackLayout;horizontal=1;startSize=26;horizontalStack=0;resizeParent=1;resizeParentMax=0;resizeLast=0;collapsible=1;marginBottom=0;" vertex="1" parent="WIyWlLk6GJQsqaUBKTNV-1">
          <mxGeometry x="200" y="910" width="160" height="170" as="geometry" />
        </mxCell>
        <mxCell id="3rIXeKDHrVkZI3w4sd3L-9" value="-font : BitmapFont&#xa;-inputIP: String&#xa;-lastInput: String&#xa;- titleScreen: Texture&#xa;-userWriting: boolean&#xa;" style="text;strokeColor=none;fillColor=none;align=left;verticalAlign=top;spacingLeft=4;spacingRight=4;overflow=hidden;rotatable=0;points=[[0,0.5],[1,0.5]];portConstraint=eastwest;" vertex="1" parent="3rIXeKDHrVkZI3w4sd3L-8">
          <mxGeometry y="26" width="160" height="84" as="geometry" />
        </mxCell>
        <mxCell id="3rIXeKDHrVkZI3w4sd3L-10" value="" style="line;strokeWidth=1;fillColor=none;align=left;verticalAlign=middle;spacingTop=-1;spacingLeft=3;spacingRight=3;rotatable=0;labelPosition=right;points=[];portConstraint=eastwest;" vertex="1" parent="3rIXeKDHrVkZI3w4sd3L-8">
          <mxGeometry y="110" width="160" height="8" as="geometry" />
        </mxCell>
        <mxCell id="3rIXeKDHrVkZI3w4sd3L-11" value="+hide()&#xa;+render()&#xa;+show()&#xa;" style="text;strokeColor=none;fillColor=none;align=left;verticalAlign=top;spacingLeft=4;spacingRight=4;overflow=hidden;rotatable=0;points=[[0,0.5],[1,0.5]];portConstraint=eastwest;" vertex="1" parent="3rIXeKDHrVkZI3w4sd3L-8">
          <mxGeometry y="118" width="160" height="52" as="geometry" />
        </mxCell>
        <mxCell id="3rIXeKDHrVkZI3w4sd3L-13" value="" style="endArrow=diamondThin;endFill=0;endSize=24;html=1;strokeWidth=2;entryX=0.5;entryY=0;entryDx=0;entryDy=0;" edge="1" parent="WIyWlLk6GJQsqaUBKTNV-1" source="GgQw_TRiUhhSthofnAt6-15" target="3rIXeKDHrVkZI3w4sd3L-8">
          <mxGeometry width="160" relative="1" as="geometry">
            <mxPoint x="89.99714285714266" y="641" as="sourcePoint" />
            <mxPoint x="137.14" y="767" as="targetPoint" />
          </mxGeometry>
        </mxCell>
        <mxCell id="3rIXeKDHrVkZI3w4sd3L-15" value="" style="endArrow=diamondThin;endFill=0;endSize=24;html=1;strokeWidth=2;entryX=0;entryY=0;entryDx=0;entryDy=0;" edge="1" parent="WIyWlLk6GJQsqaUBKTNV-1" target="3rIXeKDHrVkZI3w4sd3L-0">
          <mxGeometry width="160" relative="1" as="geometry">
            <mxPoint x="530.0007017543865" y="624" as="sourcePoint" />
            <mxPoint x="528.3121052631584" y="701" as="targetPoint" />
          </mxGeometry>
        </mxCell>
        <mxCell id="3rIXeKDHrVkZI3w4sd3L-16" value="" style="endArrow=diamondThin;endFill=0;endSize=24;html=1;strokeWidth=2;exitX=0.984;exitY=1.036;exitDx=0;exitDy=0;exitPerimeter=0;" edge="1" parent="WIyWlLk6GJQsqaUBKTNV-1" source="GgQw_TRiUhhSthofnAt6-15" target="3rIXeKDHrVkZI3w4sd3L-4">
          <mxGeometry width="160" relative="1" as="geometry">
            <mxPoint x="311.6907017543864" y="850" as="sourcePoint" />
            <mxPoint x="310.00210526315834" y="927" as="targetPoint" />
          </mxGeometry>
        </mxCell>
        <mxCell id="3rIXeKDHrVkZI3w4sd3L-17" value="" style="endArrow=diamondThin;endFill=0;endSize=24;html=1;strokeWidth=2;exitX=1.013;exitY=0.718;exitDx=0;exitDy=0;exitPerimeter=0;entryX=-0.012;entryY=0.251;entryDx=0;entryDy=0;entryPerimeter=0;" edge="1" parent="WIyWlLk6GJQsqaUBKTNV-1" source="GgQw_TRiUhhSthofnAt6-15" target="3rIXeKDHrVkZI3w4sd3L-1">
          <mxGeometry width="160" relative="1" as="geometry">
            <mxPoint x="441.6907017543864" y="820" as="sourcePoint" />
            <mxPoint x="440.00210526315834" y="897" as="targetPoint" />
          </mxGeometry>
        </mxCell>
        <mxCell id="3rIXeKDHrVkZI3w4sd3L-18" value="" style="endArrow=diamondThin;endFill=0;endSize=24;html=1;strokeWidth=2;entryX=0.75;entryY=0;entryDx=0;entryDy=0;exitX=0.022;exitY=1.032;exitDx=0;exitDy=0;exitPerimeter=0;" edge="1" parent="WIyWlLk6GJQsqaUBKTNV-1" source="GgQw_TRiUhhSthofnAt6-68" target="3rIXeKDHrVkZI3w4sd3L-8">
          <mxGeometry width="160" relative="1" as="geometry">
            <mxPoint x="341.6907017543864" y="624" as="sourcePoint" />
            <mxPoint x="340.00210526315834" y="701" as="targetPoint" />
          </mxGeometry>
        </mxCell>
      </root>
    </mxGraphModel>
  </diagram>
</mxfile>
